<svg width="360" height="140" fill="none" xmlns="http://www.w3.org/2000/svg">
	<style>.logo-text{color: #000;}@media(prefers-color-scheme:dark){.logo-text{color: #fff;}}</style>
	<path fill-rule="evenodd" clip-rule="evenodd" d="M26 46h15.7v23.6h-7.3a1 1 0 00-.8 1.6l14.7 16.5a1 1 0 001.5 0l14.6-16.5a1 1 0 00-.7-1.6h-7.5V46H72v25a23 23 0 11-46-.6H26V46z" fill="#1053FE"/>
	<path class="logo-text" fill="currentColor" d="M79.1 93.8h13V79.6h7.2c10.8 0 18.1-6.4 18.1-16.7 0-10.2-7-16.9-17.7-16.9H79.1v47.8zm13-24.3V56.4h4.6c4.5 0 7.2 2.4 7.2 6.5 0 4-2.7 6.6-7.2 6.6H92zM140 93.8c14.6 0 23.8-9 23.8-23.9 0-15-9.2-23.9-24-23.9h-18.1v47.8h18.4zm-5.3-11V57h4.5c7.5 0 11.6 3 11.6 13s-4.1 12.8-11.2 12.8h-5zM177.7 93.8l2.8-9.1h15.7l2.8 9.1h14L197.2 46h-17.7l-15.7 47.8h14zm5.7-18.8l4.8-15.8h.3l4.8 15.8h-9.9zM206.8 56.5H221v37.3H234V56.5h14.3V46h-41.4v10.5zM253.1 93.8h34.3V83.4h-21.3V75h19.6V64.7h-19.6v-8.2h21.4V46h-34.4v47.8zM293.4 93.8h13V78h4.5l8.3 15.8h14.1L323.6 76c5.1-2.5 8.1-7.1 8.1-13.7 0-10.2-7-16.3-17.7-16.3h-20.6v47.8zm13-25.8V56.4h4.6c4.5 0 7.2 1.7 7.2 5.9 0 4-2.7 5.7-7.2 5.7h-4.6z" />
</svg>
